<svg width="35" height="30" viewBox="0 0 35 30" fill="none" xmlns="http://www.w3.org/2000/svg">
<path fill-rule="evenodd" clip-rule="evenodd" d="M8.3277 7.49998H31.0511L28.887 18.75H10.4918L8.3277 7.49998Z" stroke="#212529" stroke-linecap="round" stroke-linejoin="round"/>
<path fill-rule="evenodd" clip-rule="evenodd" d="M13.125 25C13.9304 25 14.5833 24.4404 14.5833 23.75C14.5833 23.0596 13.9304 22.5 13.125 22.5C12.3196 22.5 11.6667 23.0596 11.6667 23.75C11.6667 24.4404 12.3196 25 13.125 25Z" stroke="#212529"/>
<path fill-rule="evenodd" clip-rule="evenodd" d="M26.25 25C27.0554 25 27.7083 24.4404 27.7083 23.75C27.7083 23.0596 27.0554 22.5 26.25 22.5C25.4446 22.5 24.7917 23.0596 24.7917 23.75C24.7917 24.4404 25.4446 25 26.25 25Z" stroke="#212529"/>
<path d="M10.2083 7.5H4.375" stroke="#212529" stroke-linecap="round"/>
</svg>
